<svg xmlns="http://www.w3.org/2000/svg" xmlns:xlink="http://www.w3.org/1999/xlink" width="1366" height="538" viewBox="0 0 1366 538">
  <defs>
    <clipPath id="clip-path">
      <rect id="Rectangle_191" data-name="Rectangle 191" width="1366" height="538" fill="#fff"/>
    </clipPath>
    <clipPath id="clip-path-2">
      <ellipse id="Ellipse_2" data-name="Ellipse 2" cx="115.068" cy="115.067" rx="115.068" ry="115.067" fill="none"/>
    </clipPath>
  </defs>
  <g id="Mask_Group_5" data-name="Mask Group 5" clip-path="url(#clip-path)">
    <g id="Group_94" data-name="Group 94" transform="translate(-252.362 -0.358)">
      <g id="Group_19" data-name="Group 19" transform="translate(1655.043 247.63) rotate(180)">
        <g id="Group_17" data-name="Group 17" transform="translate(65.809 109.678)">
          <path id="Path_38" data-name="Path 38" d="M17.947,8.973a8.973,8.973,0,1,0-8.973,8.978A8.975,8.975,0,0,0,17.947,8.973Z" fill="#606060" stroke="#d8d9da" stroke-miterlimit="10" stroke-width="1"/>
          <path id="Path_39" data-name="Path 39" d="M17.951,8.973a8.976,8.976,0,1,0-8.978,8.978A8.978,8.978,0,0,0,17.951,8.973Z" transform="translate(65.808)" fill="none" stroke="#d8d9da" stroke-miterlimit="10" stroke-width="0.78"/>
          <path id="Path_40" data-name="Path 40" d="M17.947,8.973a8.973,8.973,0,1,0-8.973,8.978A8.975,8.975,0,0,0,17.947,8.973Z" transform="translate(131.62)" fill="none" stroke="#d8d9da" stroke-miterlimit="10" stroke-width="0.78"/>
        </g>
        <g id="Group_18" data-name="Group 18">
          <ellipse id="Ellipse_1" data-name="Ellipse 1" cx="8.974" cy="8.974" rx="8.974" ry="8.974" transform="translate(0 52.845)" fill="none" stroke="#d8d9da" stroke-miterlimit="10" stroke-width="0.78"/>
          <path id="Path_41" data-name="Path 41" d="M17.947,8.973a8.973,8.973,0,1,0-8.973,8.973A8.972,8.972,0,0,0,17.947,8.973Z" transform="translate(65.809 52.844)" fill="none" stroke="#d8d9da" stroke-miterlimit="10" stroke-width="0.78"/>
          <path id="Path_42" data-name="Path 42" d="M17.951,8.973a8.976,8.976,0,1,0-8.978,8.973A8.975,8.975,0,0,0,17.951,8.973Z" transform="translate(131.617 52.844)" fill="none" stroke="#d8d9da" stroke-miterlimit="10" stroke-width="0.78"/>
          <path id="Path_43" data-name="Path 43" d="M17.951,8.973a8.976,8.976,0,1,0-8.978,8.973A8.975,8.975,0,0,0,17.951,8.973Z" transform="translate(131.617 0)" fill="none" stroke="#77f859" stroke-miterlimit="10" stroke-width="1"/>
        </g>
      </g>
      <path id="Path_47" data-name="Path 47" d="M640.121,231.3a9.237,9.237,0,1,0-9.237,9.237A9.236,9.236,0,0,0,640.121,231.3Z" transform="translate(832.358 -214.659)" fill="none" stroke="#575758" stroke-linecap="round" stroke-linejoin="round" stroke-width="1"/>
      <g id="Group_66" data-name="Group 66" transform="translate(0 306.996)">
        <g id="Group_43" data-name="Group 43" transform="translate(0 0)">
          <g id="Group_42" data-name="Group 42">
            <rect id="Rectangle_47" data-name="Rectangle 47" width="8.872" height="8.872" transform="matrix(0.707, 0.707, -0.707, 0.707, 6.273, 270.316)" fill="#8f9294"/>
            <rect id="Rectangle_48" data-name="Rectangle 48" width="8.42" height="8.42" transform="translate(31.167 245.742) rotate(44.999)" fill="#8f9294"/>
            <rect id="Rectangle_49" data-name="Rectangle 49" width="7.968" height="7.968" transform="translate(56.061 221.168) rotate(44.999)" fill="#8f9294"/>
            <rect id="Rectangle_50" data-name="Rectangle 50" width="7.517" height="7.517" transform="translate(80.954 196.594) rotate(44.999)" fill="#8f9294"/>
            <rect id="Rectangle_51" data-name="Rectangle 51" width="7.065" height="7.065" transform="matrix(0.707, 0.707, -0.707, 0.707, 105.848, 172.019)" fill="#8f9294"/>
            <rect id="Rectangle_52" data-name="Rectangle 52" width="6.613" height="6.613" transform="translate(130.742 147.445) rotate(45)" fill="#8f9294"/>
            <rect id="Rectangle_53" data-name="Rectangle 53" width="6.162" height="6.162" transform="translate(155.635 122.871) rotate(45)" fill="#8f9294"/>
            <rect id="Rectangle_54" data-name="Rectangle 54" width="5.71" height="5.71" transform="translate(180.529 98.297) rotate(45)" fill="#8f9294"/>
            <rect id="Rectangle_55" data-name="Rectangle 55" width="5.258" height="5.258" transform="translate(205.423 73.722) rotate(45)" fill="#8f9294"/>
            <rect id="Rectangle_56" data-name="Rectangle 56" width="4.806" height="4.806" transform="translate(230.316 49.148) rotate(45)" fill="#8f9294"/>
            <rect id="Rectangle_57" data-name="Rectangle 57" width="4.355" height="4.355" transform="translate(255.21 24.574) rotate(45)" fill="#8f9294"/>
            <rect id="Rectangle_58" data-name="Rectangle 58" width="3.903" height="3.903" transform="translate(280.103 0) rotate(45)" fill="#8f9294"/>
          </g>
        </g>
        <g id="Group_45" data-name="Group 45" transform="translate(20.169 20.169)">
          <g id="Group_44" data-name="Group 44">
            <rect id="Rectangle_59" data-name="Rectangle 59" width="8.872" height="8.872" transform="translate(6.273 270.316) rotate(45)" fill="#8f9294"/>
            <rect id="Rectangle_60" data-name="Rectangle 60" width="8.42" height="8.42" transform="translate(31.167 245.742) rotate(44.999)" fill="#8f9294"/>
            <rect id="Rectangle_61" data-name="Rectangle 61" width="7.968" height="7.968" transform="translate(56.061 221.168) rotate(45)" fill="#8f9294"/>
            <rect id="Rectangle_62" data-name="Rectangle 62" width="7.517" height="7.517" transform="translate(80.954 196.594) rotate(45)" fill="#8f9294"/>
            <rect id="Rectangle_63" data-name="Rectangle 63" width="7.065" height="7.065" transform="translate(105.848 172.019) rotate(45)" fill="#8f9294"/>
            <rect id="Rectangle_64" data-name="Rectangle 64" width="6.613" height="6.613" transform="translate(130.742 147.445) rotate(45)" fill="#8f9294"/>
            <rect id="Rectangle_65" data-name="Rectangle 65" width="6.162" height="6.162" transform="translate(155.635 122.871) rotate(45)" fill="#8f9294"/>
            <rect id="Rectangle_66" data-name="Rectangle 66" width="5.71" height="5.71" transform="translate(180.529 98.297) rotate(45)" fill="#8f9294"/>
            <rect id="Rectangle_67" data-name="Rectangle 67" width="5.258" height="5.258" transform="matrix(0.707, 0.707, -0.707, 0.707, 205.423, 73.723)" fill="#8f9294"/>
            <rect id="Rectangle_68" data-name="Rectangle 68" width="4.806" height="4.806" transform="translate(230.316 49.148) rotate(45)" fill="#8f9294"/>
            <rect id="Rectangle_69" data-name="Rectangle 69" width="4.355" height="4.355" transform="translate(255.21 24.574) rotate(44.998)" fill="#8f9294"/>
            <rect id="Rectangle_70" data-name="Rectangle 70" width="3.903" height="3.903" transform="translate(280.103 0) rotate(45)" fill="#8f9294"/>
          </g>
        </g>
        <g id="Group_47" data-name="Group 47" transform="translate(40.338 40.338)">
          <g id="Group_46" data-name="Group 46">
            <rect id="Rectangle_71" data-name="Rectangle 71" width="8.872" height="8.872" transform="translate(6.273 270.316) rotate(44.999)" fill="#8f9294"/>
            <rect id="Rectangle_72" data-name="Rectangle 72" width="8.42" height="8.42" transform="translate(31.167 245.742) rotate(45)" fill="#8f9294"/>
            <rect id="Rectangle_73" data-name="Rectangle 73" width="7.968" height="7.968" transform="translate(56.061 221.168) rotate(45)" fill="#8f9294"/>
            <rect id="Rectangle_74" data-name="Rectangle 74" width="7.517" height="7.517" transform="translate(80.954 196.594) rotate(44.999)" fill="#8f9294"/>
            <rect id="Rectangle_75" data-name="Rectangle 75" width="7.065" height="7.065" transform="translate(105.848 172.019) rotate(45)" fill="#8f9294"/>
            <rect id="Rectangle_76" data-name="Rectangle 76" width="6.613" height="6.613" transform="translate(130.742 147.445) rotate(45)" fill="#8f9294"/>
            <rect id="Rectangle_77" data-name="Rectangle 77" width="6.162" height="6.162" transform="translate(155.635 122.871) rotate(45)" fill="#8f9294"/>
            <rect id="Rectangle_78" data-name="Rectangle 78" width="5.71" height="5.71" transform="translate(180.529 98.297) rotate(45)" fill="#8f9294"/>
            <rect id="Rectangle_79" data-name="Rectangle 79" width="5.258" height="5.258" transform="translate(205.423 73.723) rotate(45)" fill="#8f9294"/>
            <rect id="Rectangle_80" data-name="Rectangle 80" width="4.806" height="4.806" transform="translate(230.316 49.148) rotate(45)" fill="#8f9294"/>
            <rect id="Rectangle_81" data-name="Rectangle 81" width="4.355" height="4.355" transform="translate(255.21 24.574) rotate(44.998)" fill="#8f9294"/>
            <rect id="Rectangle_82" data-name="Rectangle 82" width="3.903" height="3.903" transform="translate(280.104 0) rotate(45)" fill="#8f9294"/>
          </g>
        </g>
        <g id="Group_49" data-name="Group 49" transform="translate(60.508 60.507)">
          <g id="Group_48" data-name="Group 48">
            <rect id="Rectangle_83" data-name="Rectangle 83" width="8.872" height="8.872" transform="translate(6.273 270.316) rotate(45.001)" fill="#8f9294"/>
            <rect id="Rectangle_84" data-name="Rectangle 84" width="8.42" height="8.42" transform="translate(31.167 245.742) rotate(45.001)" fill="#8f9294"/>
            <rect id="Rectangle_85" data-name="Rectangle 85" width="7.968" height="7.968" transform="translate(56.061 221.168) rotate(45.001)" fill="#8f9294"/>
            <rect id="Rectangle_86" data-name="Rectangle 86" width="7.517" height="7.517" transform="translate(80.954 196.594) rotate(45)" fill="#8f9294"/>
            <rect id="Rectangle_87" data-name="Rectangle 87" width="7.065" height="7.065" transform="translate(105.848 172.019) rotate(45)" fill="#8f9294"/>
            <rect id="Rectangle_88" data-name="Rectangle 88" width="6.613" height="6.613" transform="translate(130.742 147.445) rotate(45)" fill="#8f9294"/>
            <rect id="Rectangle_89" data-name="Rectangle 89" width="6.162" height="6.162" transform="translate(155.635 122.871) rotate(45)" fill="#8f9294"/>
            <rect id="Rectangle_90" data-name="Rectangle 90" width="5.71" height="5.71" transform="translate(180.529 98.297) rotate(45)" fill="#8f9294"/>
            <rect id="Rectangle_91" data-name="Rectangle 91" width="5.258" height="5.258" transform="translate(205.422 73.723) rotate(45)" fill="#8f9294"/>
            <rect id="Rectangle_92" data-name="Rectangle 92" width="4.806" height="4.806" transform="translate(230.316 49.149) rotate(45)" fill="#8f9294"/>
            <rect id="Rectangle_93" data-name="Rectangle 93" width="4.355" height="4.355" transform="translate(255.21 24.574) rotate(45.002)" fill="#8f9294"/>
            <rect id="Rectangle_94" data-name="Rectangle 94" width="3.903" height="3.903" transform="translate(280.104 0) rotate(45)" fill="#8f9294"/>
          </g>
        </g>
        <g id="Group_51" data-name="Group 51" transform="translate(80.677 80.677)">
          <g id="Group_50" data-name="Group 50">
            <rect id="Rectangle_95" data-name="Rectangle 95" width="8.872" height="8.872" transform="translate(6.273 270.316) rotate(45.001)" fill="#8f9294"/>
            <rect id="Rectangle_96" data-name="Rectangle 96" width="8.42" height="8.42" transform="translate(31.167 245.742) rotate(45.001)" fill="#8f9294"/>
            <rect id="Rectangle_97" data-name="Rectangle 97" width="7.968" height="7.968" transform="translate(56.061 221.168) rotate(45.001)" fill="#8f9294"/>
            <rect id="Rectangle_98" data-name="Rectangle 98" width="7.517" height="7.517" transform="translate(80.954 196.593) rotate(45.001)" fill="#8f9294"/>
            <rect id="Rectangle_99" data-name="Rectangle 99" width="7.065" height="7.065" transform="matrix(0.707, 0.707, -0.707, 0.707, 105.848, 172.019)" fill="#8f9294"/>
            <rect id="Rectangle_100" data-name="Rectangle 100" width="6.613" height="6.613" transform="matrix(0.707, 0.707, -0.707, 0.707, 130.742, 147.445)" fill="#8f9294"/>
            <rect id="Rectangle_101" data-name="Rectangle 101" width="6.161" height="6.161" transform="matrix(0.707, 0.707, -0.707, 0.707, 155.635, 122.871)" fill="#8f9294"/>
            <rect id="Rectangle_102" data-name="Rectangle 102" width="5.71" height="5.71" transform="translate(180.529 98.297) rotate(45)" fill="#8f9294"/>
            <rect id="Rectangle_103" data-name="Rectangle 103" width="5.258" height="5.258" transform="translate(205.423 73.723) rotate(45.002)" fill="#8f9294"/>
            <rect id="Rectangle_104" data-name="Rectangle 104" width="4.806" height="4.806" transform="translate(230.316 49.148) rotate(45)" fill="#8f9294"/>
            <rect id="Rectangle_105" data-name="Rectangle 105" width="4.355" height="4.355" transform="translate(255.21 24.574) rotate(45.002)" fill="#8f9294"/>
            <rect id="Rectangle_106" data-name="Rectangle 106" width="3.903" height="3.903" transform="translate(280.103 0) rotate(45)" fill="#8f9294"/>
          </g>
        </g>
        <g id="Group_53" data-name="Group 53" transform="translate(100.846 100.846)">
          <g id="Group_52" data-name="Group 52">
            <rect id="Rectangle_107" data-name="Rectangle 107" width="8.872" height="8.872" transform="translate(6.273 270.316) rotate(45.001)" fill="#8f9294"/>
            <rect id="Rectangle_108" data-name="Rectangle 108" width="8.42" height="8.42" transform="translate(31.167 245.742) rotate(45.001)" fill="#8f9294"/>
            <rect id="Rectangle_109" data-name="Rectangle 109" width="7.968" height="7.968" transform="translate(56.061 221.168) rotate(45.001)" fill="#8f9294"/>
            <rect id="Rectangle_110" data-name="Rectangle 110" width="7.517" height="7.517" transform="translate(80.954 196.594) rotate(45.001)" fill="#8f9294"/>
            <rect id="Rectangle_111" data-name="Rectangle 111" width="7.065" height="7.065" transform="translate(105.848 172.019) rotate(45.001)" fill="#8f9294"/>
            <rect id="Rectangle_112" data-name="Rectangle 112" width="6.613" height="6.613" transform="matrix(0.707, 0.707, -0.707, 0.707, 130.742, 147.445)" fill="#8f9294"/>
            <rect id="Rectangle_113" data-name="Rectangle 113" width="6.162" height="6.162" transform="translate(155.635 122.871) rotate(45)" fill="#8f9294"/>
            <rect id="Rectangle_114" data-name="Rectangle 114" width="5.71" height="5.71" transform="translate(180.529 98.297) rotate(45.001)" fill="#8f9294"/>
            <rect id="Rectangle_115" data-name="Rectangle 115" width="5.258" height="5.258" transform="translate(205.422 73.722) rotate(45)" fill="#8f9294"/>
            <rect id="Rectangle_116" data-name="Rectangle 116" width="4.806" height="4.806" transform="translate(230.316 49.148) rotate(45)" fill="#8f9294"/>
            <rect id="Rectangle_117" data-name="Rectangle 117" width="4.355" height="4.355" transform="translate(255.21 24.574) rotate(45)" fill="#8f9294"/>
            <rect id="Rectangle_118" data-name="Rectangle 118" width="3.903" height="3.903" transform="translate(280.103 0) rotate(45)" fill="#8f9294"/>
          </g>
        </g>
        <g id="Group_55" data-name="Group 55" transform="translate(121.015 121.015)">
          <g id="Group_54" data-name="Group 54">
            <rect id="Rectangle_119" data-name="Rectangle 119" width="8.872" height="8.872" transform="translate(6.273 270.316) rotate(44.999)" fill="#8f9294"/>
            <rect id="Rectangle_120" data-name="Rectangle 120" width="8.42" height="8.42" transform="translate(31.167 245.742) rotate(44.999)" fill="#8f9294"/>
            <rect id="Rectangle_121" data-name="Rectangle 121" width="7.968" height="7.968" transform="translate(56.061 221.168) rotate(44.999)" fill="#8f9294"/>
            <rect id="Rectangle_122" data-name="Rectangle 122" width="7.517" height="7.517" transform="translate(80.954 196.594) rotate(44.999)" fill="#8f9294"/>
            <rect id="Rectangle_123" data-name="Rectangle 123" width="7.065" height="7.065" transform="matrix(0.707, 0.707, -0.707, 0.707, 105.848, 172.019)" fill="#8f9294"/>
            <rect id="Rectangle_124" data-name="Rectangle 124" width="6.613" height="6.613" transform="matrix(0.707, 0.707, -0.707, 0.707, 130.742, 147.445)" fill="#8f9294"/>
            <rect id="Rectangle_125" data-name="Rectangle 125" width="6.162" height="6.162" transform="translate(155.635 122.871) rotate(45)" fill="#8f9294"/>
            <rect id="Rectangle_126" data-name="Rectangle 126" width="5.71" height="5.71" transform="translate(180.529 98.297) rotate(45)" fill="#8f9294"/>
            <rect id="Rectangle_127" data-name="Rectangle 127" width="5.258" height="5.258" transform="matrix(0.707, 0.707, -0.707, 0.707, 205.423, 73.723)" fill="#8f9294"/>
            <rect id="Rectangle_128" data-name="Rectangle 128" width="4.806" height="4.806" transform="translate(230.316 49.148) rotate(45)" fill="#8f9294"/>
            <rect id="Rectangle_129" data-name="Rectangle 129" width="4.355" height="4.355" transform="translate(255.21 24.574) rotate(45)" fill="#8f9294"/>
            <rect id="Rectangle_130" data-name="Rectangle 130" width="3.903" height="3.903" transform="translate(280.103 0) rotate(45)" fill="#8f9294"/>
          </g>
        </g>
        <g id="Group_57" data-name="Group 57" transform="translate(141.184 141.184)">
          <g id="Group_56" data-name="Group 56">
            <rect id="Rectangle_131" data-name="Rectangle 131" width="8.872" height="8.872" transform="translate(6.273 270.316) rotate(44.999)" fill="#8f9294"/>
            <rect id="Rectangle_132" data-name="Rectangle 132" width="8.42" height="8.42" transform="translate(31.167 245.742) rotate(45)" fill="#8f9294"/>
            <rect id="Rectangle_133" data-name="Rectangle 133" width="7.968" height="7.968" transform="translate(56.061 221.168) rotate(45)" fill="#8f9294"/>
            <rect id="Rectangle_134" data-name="Rectangle 134" width="7.517" height="7.517" transform="translate(80.954 196.594) rotate(45)" fill="#8f9294"/>
            <rect id="Rectangle_135" data-name="Rectangle 135" width="7.065" height="7.065" transform="translate(105.848 172.019) rotate(45)" fill="#8f9294"/>
            <rect id="Rectangle_136" data-name="Rectangle 136" width="6.613" height="6.613" transform="translate(130.742 147.445) rotate(45)" fill="#8f9294"/>
            <rect id="Rectangle_137" data-name="Rectangle 137" width="6.162" height="6.162" transform="translate(155.635 122.871) rotate(45)" fill="#8f9294"/>
            <rect id="Rectangle_138" data-name="Rectangle 138" width="5.71" height="5.71" transform="translate(180.529 98.297) rotate(44.999)" fill="#8f9294"/>
            <rect id="Rectangle_139" data-name="Rectangle 139" width="5.258" height="5.258" transform="translate(205.423 73.723) rotate(45)" fill="#8f9294"/>
            <rect id="Rectangle_140" data-name="Rectangle 140" width="4.806" height="4.806" transform="translate(230.316 49.148) rotate(45)" fill="#8f9294"/>
            <rect id="Rectangle_141" data-name="Rectangle 141" width="4.355" height="4.355" transform="translate(255.21 24.574) rotate(45)" fill="#8f9294"/>
            <rect id="Rectangle_142" data-name="Rectangle 142" width="3.903" height="3.903" transform="translate(280.104 0) rotate(45)" fill="#8f9294"/>
          </g>
        </g>
        <g id="Group_59" data-name="Group 59" transform="translate(161.353 161.353)">
          <g id="Group_58" data-name="Group 58">
            <rect id="Rectangle_143" data-name="Rectangle 143" width="8.872" height="8.872" transform="matrix(0.707, 0.707, -0.707, 0.707, 6.273, 270.316)" fill="#8f9294"/>
            <rect id="Rectangle_144" data-name="Rectangle 144" width="8.42" height="8.42" transform="translate(31.167 245.742) rotate(45)" fill="#8f9294"/>
            <rect id="Rectangle_145" data-name="Rectangle 145" width="7.968" height="7.968" transform="translate(56.061 221.168) rotate(44.999)" fill="#8f9294"/>
            <rect id="Rectangle_146" data-name="Rectangle 146" width="7.517" height="7.517" transform="translate(80.954 196.594) rotate(45)" fill="#8f9294"/>
            <rect id="Rectangle_147" data-name="Rectangle 147" width="7.065" height="7.065" transform="translate(105.848 172.019) rotate(45)" fill="#8f9294"/>
            <rect id="Rectangle_148" data-name="Rectangle 148" width="6.613" height="6.613" transform="translate(130.742 147.445) rotate(45)" fill="#8f9294"/>
            <rect id="Rectangle_149" data-name="Rectangle 149" width="6.162" height="6.162" transform="translate(155.635 122.871) rotate(45)" fill="#8f9294"/>
            <rect id="Rectangle_150" data-name="Rectangle 150" width="5.71" height="5.71" transform="translate(180.529 98.297) rotate(44.999)" fill="#8f9294"/>
            <rect id="Rectangle_151" data-name="Rectangle 151" width="5.258" height="5.258" transform="translate(205.423 73.723) rotate(45)" fill="#8f9294"/>
            <rect id="Rectangle_152" data-name="Rectangle 152" width="4.806" height="4.806" transform="translate(230.316 49.148) rotate(45)" fill="#8f9294"/>
            <rect id="Rectangle_153" data-name="Rectangle 153" width="4.355" height="4.355" transform="translate(255.21 24.574) rotate(45)" fill="#8f9294"/>
            <rect id="Rectangle_154" data-name="Rectangle 154" width="3.903" height="3.903" transform="translate(280.104 0) rotate(45)" fill="#8f9294"/>
          </g>
        </g>
        <g id="Group_61" data-name="Group 61" transform="translate(181.523 181.523)">
          <g id="Group_60" data-name="Group 60">
            <rect id="Rectangle_155" data-name="Rectangle 155" width="8.872" height="8.872" transform="translate(6.273 270.316) rotate(45.001)" fill="#8f9294"/>
            <rect id="Rectangle_156" data-name="Rectangle 156" width="8.42" height="8.42" transform="translate(31.167 245.742) rotate(45.001)" fill="#8f9294"/>
            <rect id="Rectangle_157" data-name="Rectangle 157" width="7.968" height="7.968" transform="translate(56.061 221.168) rotate(45.001)" fill="#8f9294"/>
            <rect id="Rectangle_158" data-name="Rectangle 158" width="7.517" height="7.517" transform="translate(80.954 196.594) rotate(45.001)" fill="#8f9294"/>
            <rect id="Rectangle_159" data-name="Rectangle 159" width="7.065" height="7.065" transform="translate(105.848 172.019) rotate(45)" fill="#8f9294"/>
            <rect id="Rectangle_160" data-name="Rectangle 160" width="6.613" height="6.613" transform="matrix(0.707, 0.707, -0.707, 0.707, 130.742, 147.445)" fill="#8f9294"/>
            <rect id="Rectangle_161" data-name="Rectangle 161" width="6.162" height="6.162" transform="translate(155.635 122.871) rotate(45)" fill="#8f9294"/>
            <rect id="Rectangle_162" data-name="Rectangle 162" width="5.71" height="5.71" transform="translate(180.529 98.297) rotate(45)" fill="#8f9294"/>
            <rect id="Rectangle_163" data-name="Rectangle 163" width="5.258" height="5.258" transform="matrix(0.707, 0.707, -0.707, 0.707, 205.423, 73.723)" fill="#8f9294"/>
            <rect id="Rectangle_164" data-name="Rectangle 164" width="4.806" height="4.806" transform="translate(230.316 49.148) rotate(45)" fill="#8f9294"/>
            <rect id="Rectangle_165" data-name="Rectangle 165" width="4.355" height="4.355" transform="translate(255.21 24.574) rotate(45)" fill="#8f9294"/>
            <rect id="Rectangle_166" data-name="Rectangle 166" width="3.903" height="3.903" transform="matrix(0.707, 0.707, -0.707, 0.707, 280.103, 0)" fill="#8f9294"/>
          </g>
        </g>
        <g id="Group_63" data-name="Group 63" transform="translate(201.692 201.692)">
          <g id="Group_62" data-name="Group 62">
            <rect id="Rectangle_167" data-name="Rectangle 167" width="8.872" height="8.872" transform="translate(6.273 270.316) rotate(45.001)" fill="#8f9294"/>
            <rect id="Rectangle_168" data-name="Rectangle 168" width="8.42" height="8.42" transform="translate(31.167 245.742) rotate(45.001)" fill="#8f9294"/>
            <rect id="Rectangle_169" data-name="Rectangle 169" width="7.968" height="7.968" transform="translate(56.061 221.168) rotate(45.001)" fill="#8f9294"/>
            <rect id="Rectangle_170" data-name="Rectangle 170" width="7.517" height="7.517" transform="translate(80.954 196.593) rotate(45.001)" fill="#8f9294"/>
            <rect id="Rectangle_171" data-name="Rectangle 171" width="7.065" height="7.065" transform="matrix(0.707, 0.707, -0.707, 0.707, 105.848, 172.019)" fill="#8f9294"/>
            <rect id="Rectangle_172" data-name="Rectangle 172" width="6.613" height="6.613" transform="matrix(0.707, 0.707, -0.707, 0.707, 130.742, 147.445)" fill="#8f9294"/>
            <rect id="Rectangle_173" data-name="Rectangle 173" width="6.161" height="6.161" transform="matrix(0.707, 0.707, -0.707, 0.707, 155.635, 122.871)" fill="#8f9294"/>
            <rect id="Rectangle_174" data-name="Rectangle 174" width="5.71" height="5.71" transform="translate(180.529 98.297) rotate(45.001)" fill="#8f9294"/>
            <rect id="Rectangle_175" data-name="Rectangle 175" width="5.258" height="5.258" transform="translate(205.423 73.723) rotate(45.002)" fill="#8f9294"/>
            <rect id="Rectangle_176" data-name="Rectangle 176" width="4.806" height="4.806" transform="translate(230.316 49.148) rotate(45)" fill="#8f9294"/>
            <rect id="Rectangle_177" data-name="Rectangle 177" width="4.355" height="4.355" transform="translate(255.21 24.574) rotate(45.002)" fill="#8f9294"/>
            <rect id="Rectangle_178" data-name="Rectangle 178" width="3.903" height="3.903" transform="translate(280.103 0) rotate(45)" fill="#8f9294"/>
          </g>
        </g>
        <g id="Group_65" data-name="Group 65" transform="translate(221.861 221.861)">
          <g id="Group_64" data-name="Group 64">
            <rect id="Rectangle_179" data-name="Rectangle 179" width="8.872" height="8.872" transform="matrix(0.707, 0.707, -0.707, 0.707, 6.274, 270.316)" fill="#8f9294"/>
            <rect id="Rectangle_180" data-name="Rectangle 180" width="8.42" height="8.42" transform="translate(31.167 245.742) rotate(45.001)" fill="#8f9294"/>
            <rect id="Rectangle_181" data-name="Rectangle 181" width="7.968" height="7.968" transform="translate(56.061 221.168) rotate(45.001)" fill="#8f9294"/>
            <rect id="Rectangle_182" data-name="Rectangle 182" width="7.517" height="7.517" transform="translate(80.954 196.594) rotate(45.001)" fill="#8f9294"/>
            <rect id="Rectangle_183" data-name="Rectangle 183" width="7.065" height="7.065" transform="translate(105.848 172.019) rotate(45)" fill="#8f9294"/>
            <rect id="Rectangle_184" data-name="Rectangle 184" width="6.613" height="6.613" transform="matrix(0.707, 0.707, -0.707, 0.707, 130.742, 147.445)" fill="#8f9294"/>
            <rect id="Rectangle_185" data-name="Rectangle 185" width="6.162" height="6.162" transform="translate(155.635 122.871) rotate(45)" fill="#8f9294"/>
            <rect id="Rectangle_186" data-name="Rectangle 186" width="5.71" height="5.71" transform="translate(180.529 98.297) rotate(45.001)" fill="#8f9294"/>
            <rect id="Rectangle_187" data-name="Rectangle 187" width="5.258" height="5.258" transform="translate(205.423 73.723) rotate(45)" fill="#8f9294"/>
            <rect id="Rectangle_188" data-name="Rectangle 188" width="4.806" height="4.806" transform="translate(230.316 49.148) rotate(45.002)" fill="#8f9294"/>
            <rect id="Rectangle_189" data-name="Rectangle 189" width="4.355" height="4.355" transform="translate(255.21 24.574) rotate(45.001)" fill="#8f9294"/>
            <rect id="Rectangle_190" data-name="Rectangle 190" width="3.903" height="3.903" transform="matrix(0.707, 0.707, -0.707, 0.707, 280.104, 0)" fill="#8f9294"/>
          </g>
        </g>
      </g>
      <g id="Group_93" data-name="Group 93" transform="translate(1035.71 412.141)">
        <g id="Group_92" data-name="Group 92" transform="translate(0 0)" clip-path="url(#clip-path-2)">
          <path id="Path_49" data-name="Path 49" d="M561.642,235.583c-31.826-33.782-66-65.224-97.832-99.138" transform="translate(-476.183 -0.051)" fill="none" stroke="#606060" stroke-miterlimit="10" stroke-width="0.655"/>
          <path id="Path_50" data-name="Path 50" d="M576.242,248.811c-35.449-37.991-75.091-74.9-112.47-112.418" transform="translate(-476.224 -13.17)" fill="none" stroke="#606060" stroke-miterlimit="10" stroke-width="0.655"/>
          <path id="Path_51" data-name="Path 51" d="M589.848,262.628c-42.08-42.069-84.456-84.445-126.2-126.224" transform="translate(-476.364 -27.011)" fill="none" stroke="#606060" stroke-miterlimit="10" stroke-width="0.655"/>
          <path id="Path_52" data-name="Path 52" d="M603.137,275.969Q534.354,207.17,463.7,136.55" transform="translate(-476.308 -40.656)" fill="none" stroke="#606060" stroke-miterlimit="10" stroke-width="0.655"/>
          <path id="Path_53" data-name="Path 53" d="M619.415,289.236c-51.279-50.1-103.225-100.673-155.646-152.747" transform="translate(-476.228 -53.796)" fill="none" stroke="#606060" stroke-miterlimit="10" stroke-width="0.655"/>
          <path id="Path_54" data-name="Path 54" d="M630.264,303.187c-53.8-55.375-107.109-107.32-161.788-163.365-1.366-1.368-4.1-1.368-4.824-3.243" transform="translate(-476.356 -67.935)" fill="none" stroke="#606060" stroke-miterlimit="10" stroke-width="0.655"/>
          <path id="Path_55" data-name="Path 55" d="M644.9,316.425c-33.116-35.115-68.657-66.556-104.2-102.1-25.972-27.34-51.946-50.58-76.833-77.867" transform="translate(-476.126 -80.926)" fill="none" stroke="#606060" stroke-miterlimit="10" stroke-width="0.655"/>
          <path id="Path_56" data-name="Path 56" d="M654.22,328.662c-62.845-63.833-128.461-125.347-190.45-190.9" transform="translate(-476.226 -95.886)" fill="none" stroke="#606060" stroke-miterlimit="10" stroke-width="0.655"/>
          <path id="Path_57" data-name="Path 57" d="M653.969,334.578C591.255,271.983,527.007,207.735,463.88,144.249" transform="translate(-476.107 -115.344)" fill="none" stroke="#606060" stroke-miterlimit="10" stroke-width="0.655"/>
          <path id="Path_58" data-name="Path 58" d="M660.837,344.5c-65.5-66.182-132.484-130.431-196.939-196.732" transform="translate(-476.087 -132.612)" fill="none" stroke="#606060" stroke-miterlimit="10" stroke-width="0.655"/>
          <path id="Path_59" data-name="Path 59" d="M674.76,358.69c-70.915-70.349-139.265-142.8-211.144-210.954" transform="translate(-476.394 -146.738)" fill="none" stroke="#606060" stroke-miterlimit="10" stroke-width="0.655"/>
          <path id="Path_60" data-name="Path 60" d="M683.468,364.233,467.2,147.97" transform="translate(-472.488 -152.77)" fill="none" stroke="#606060" stroke-miterlimit="10" stroke-width="0.655"/>
          <path id="Path_61" data-name="Path 61" d="M689.771,364.352c-72.2-71.219-143.287-143.669-216.156-216.378" transform="translate(-465.511 -152.897)" fill="none" stroke="#606060" stroke-miterlimit="10" stroke-width="0.655"/>
          <path id="Path_62" data-name="Path 62" d="M689.908,361.207c-69.785-69.181-138.133-140.265-209.851-210.294" transform="translate(-458.499 -155.89)" fill="none" stroke="#606060" stroke-miterlimit="10" stroke-width="0.655"/>
          <path id="Path_63" data-name="Path 63" d="M683.278,354.478c-66.1-65.85-128.977-134.2-196.749-197.388" transform="translate(-451.455 -162.061)" fill="none" stroke="#606060" stroke-miterlimit="10" stroke-width="0.655"/>
          <path id="Path_64" data-name="Path 64" d="M675.7,346.707C614.208,286.073,554.059,224.559,493.029,164.17" transform="translate(-444.38 -169.076)" fill="none" stroke="#606060" stroke-miterlimit="10" stroke-width="0.655"/>
          <path id="Path_65" data-name="Path 65" d="M669,340.064c-56.423-56.316-112.47-113.729-169.444-169.9" transform="translate(-437.279 -174.951)" fill="none" stroke="#606060" stroke-miterlimit="10" stroke-width="0.655"/>
          <path id="Path_66" data-name="Path 66" d="M661.893,333.048q-78.26-78.156-155.951-156.285" transform="translate(-430.325 -181.717)" fill="none" stroke="#606060" stroke-miterlimit="10" stroke-width="0.655"/>
          <path id="Path_67" data-name="Path 67" d="M654.905,325.8c-46.862-48.159-94.708-96-142.4-142.568" transform="translate(-423.179 -187.986)" fill="none" stroke="#606060" stroke-miterlimit="10" stroke-width="0.655"/>
          <path id="Path_68" data-name="Path 68" d="M647.744,318.714c-42.594-42.579-86.336-86.323-128.812-128.881" transform="translate(-416.187 -194.679)" fill="none" stroke="#606060" stroke-miterlimit="10" stroke-width="0.655"/>
          <path id="Path_69" data-name="Path 69" d="M640.379,311.482q-57.2-57.221-115.01-114.945" transform="translate(-409.18 -201.448)" fill="none" stroke="#606060" stroke-miterlimit="10" stroke-width="0.655"/>
          <path id="Path_70" data-name="Path 70" d="M633.778,304.923q-39.8-39.631-79.389-79.473-11.3-11.406-22.572-22.849" transform="translate(-402.162 -207.553)" fill="none" stroke="#606060" stroke-miterlimit="10" stroke-width="0.655"/>
          <path id="Path_71" data-name="Path 71" d="M626.651,297.053c-28.883-29.48-58.956-59.554-88.376-87.2" transform="translate(-395.133 -214.824)" fill="none" stroke="#606060" stroke-miterlimit="10" stroke-width="0.655"/>
        </g>
      </g>
      <ellipse id="Ellipse_3" data-name="Ellipse 3" cx="11.2" cy="11.2" rx="11.2" ry="11.2" transform="translate(1388.247 0)" fill="none" stroke="#606060" stroke-miterlimit="10" stroke-width="0.655"/>
    </g>
  </g>
</svg>
